<svg width="31" height="28" viewBox="0 0 31 28" fill="none" xmlns="http://www.w3.org/2000/svg">
<path d="M14.3146 13.7845C14.3146 14.2063 14.1471 14.6108 13.8488 14.9091C13.5505 15.2074 13.1459 15.375 12.7241 15.375H6.89223C6.4704 15.375 6.06585 15.2074 5.76757 14.9091C5.46929 14.6108 5.30172 14.2063 5.30172 13.7845C5.30172 13.3626 5.46929 12.9581 5.76757 12.6598C6.06585 12.3615 6.4704 12.1939 6.89223 12.1939H12.7241C13.1459 12.1939 13.5505 12.3615 13.8488 12.6598C14.1471 12.9581 14.3146 13.3626 14.3146 13.7845ZM12.7241 6.89223H6.89223C6.4704 6.89223 6.06585 7.0598 5.76757 7.35808C5.46929 7.65636 5.30172 8.06091 5.30172 8.48275C5.30172 8.90458 5.46929 9.30913 5.76757 9.60741C6.06585 9.90569 6.4704 10.0733 6.89223 10.0733H12.7241C13.1459 10.0733 13.5505 9.90569 13.8488 9.60741C14.1471 9.30913 14.3146 8.90458 14.3146 8.48275C14.3146 8.06091 14.1471 7.65636 13.8488 7.35808C13.5505 7.0598 13.1459 6.89223 12.7241 6.89223ZM28.6293 17.3817V25.4482C28.6292 25.7268 28.5561 26.0004 28.4171 26.2418C28.2781 26.4832 28.0781 26.6838 27.8373 26.8236C27.5964 26.9635 27.323 27.0376 27.0445 27.0386C26.7659 27.0396 26.492 26.9674 26.2501 26.8293L23.3276 25.1593L20.4116 26.8293C20.1695 26.9691 19.8949 27.0426 19.6154 27.0424C19.3359 27.0423 19.0614 26.9684 18.8195 26.8284C18.5776 26.6884 18.3769 26.4871 18.2375 26.2448C18.0982 26.0025 18.0252 25.7277 18.0258 25.4482V22.2672H2.65086C1.94781 22.2672 1.27355 21.9879 0.776418 21.4908C0.279286 20.9937 0 20.3194 0 19.6163V2.65086C0 1.94781 0.279286 1.27355 0.776418 0.776418C1.27355 0.279286 1.94781 0 2.65086 0H25.9784C26.6815 0 27.3557 0.279286 27.8528 0.776418C28.35 1.27355 28.6293 1.94781 28.6293 2.65086V7.00622C29.9886 8.39082 30.7501 10.2536 30.7501 12.1939C30.7501 14.1343 29.9886 15.9971 28.6293 17.3817ZM23.3276 16.4353C24.1664 16.4353 24.9864 16.1866 25.6839 15.7205C26.3814 15.2545 26.925 14.5921 27.2461 13.817C27.5671 13.042 27.6511 12.1892 27.4874 11.3665C27.3238 10.5437 26.9198 9.78801 26.3267 9.19484C25.7335 8.60168 24.9777 8.19772 24.155 8.03407C23.3323 7.87042 22.4795 7.95441 21.7044 8.27543C20.9294 8.59645 20.267 9.14008 19.801 9.83757C19.3349 10.5351 19.0862 11.3551 19.0862 12.1939C19.0862 13.3188 19.533 14.3976 20.3284 15.193C21.1239 15.9885 22.2027 16.4353 23.3276 16.4353ZM18.0258 19.0862V17.3817C16.8784 16.2058 16.1535 14.6824 15.9648 13.0503C15.7761 11.4182 16.1342 9.76962 16.9831 8.36292C17.832 6.95622 19.1236 5.87093 20.6555 5.27713C22.1874 4.68333 23.8731 4.6146 25.4482 5.08169V3.18103H3.18103V19.0862H18.0258ZM25.4482 22.7072V19.3062C24.0647 19.7197 22.5904 19.7197 21.2069 19.3062V22.7072L22.5389 21.9465C22.7791 21.8093 23.0509 21.7372 23.3276 21.7372C23.6042 21.7372 23.876 21.8093 24.1162 21.9465L25.4482 22.7072Z" fill="white"/>
</svg>
