<svg width="32" height="20" viewBox="0 0 32 20" fill="none" xmlns="http://www.w3.org/2000/svg">
<path d="M11.8731 2.76712L3.88484 10L11.8731 17.2329C12.1809 17.5119 12.3674 17.9042 12.3916 18.3235C12.4158 18.7427 12.2757 19.1546 12.002 19.4685C11.7284 19.7824 11.3437 19.9726 10.9325 19.9973C10.5214 20.0219 10.1174 19.879 9.80958 19.6L0.52396 11.1836C0.359285 11.0355 0.227397 10.8533 0.137059 10.6493C0.0467209 10.4452 0 10.2239 0 10C0 9.77611 0.0467209 9.55478 0.137059 9.35072C0.227397 9.14665 0.359285 8.96453 0.52396 8.81644L9.80958 0.399993C10.1174 0.120971 10.5214 -0.0219272 10.9325 0.0027351C11.3437 0.0273974 11.7284 0.2176 12.002 0.5315C12.2757 0.845401 12.4158 1.25729 12.3916 1.67655C12.3674 2.09581 12.1809 2.4881 11.8731 2.76712ZM31.476 8.81644L22.1904 0.399993C22.038 0.261836 21.8604 0.155644 21.6677 0.0874824C21.475 0.0193207 21.2711 -0.00947645 21.0675 0.0027351C20.8639 0.0149466 20.6647 0.0679281 20.4812 0.158654C20.2977 0.249379 20.1335 0.376073 19.998 0.5315C19.8625 0.686928 19.7583 0.868046 19.6915 1.06451C19.6247 1.26098 19.5964 1.46895 19.6084 1.67655C19.6204 1.88414 19.6723 2.0873 19.7613 2.27442C19.8503 2.46154 19.9745 2.62896 20.1269 2.76712L28.1113 10L20.1269 17.2329C19.9745 17.371 19.8503 17.5385 19.7613 17.7256C19.6723 17.9127 19.6204 18.1159 19.6084 18.3235C19.5964 18.5311 19.6247 18.739 19.6915 18.9355C19.7583 19.132 19.8625 19.3131 19.998 19.4685C20.1335 19.6239 20.2977 19.7506 20.4812 19.8413C20.6647 19.9321 20.8639 19.9851 21.0675 19.9973C21.2711 20.0095 21.475 19.9807 21.6677 19.9125C21.8604 19.8444 22.038 19.7382 22.1904 19.6L31.476 11.1836C31.6407 11.0355 31.7726 10.8533 31.8629 10.6493C31.9533 10.4452 32 10.2239 32 10C32 9.77611 31.9533 9.55478 31.8629 9.35072C31.7726 9.14665 31.6407 8.96453 31.476 8.81644Z" fill="white"/>
</svg>
