<svg width="56" height="60" viewBox="0 0 56 60" fill="none" xmlns="http://www.w3.org/2000/svg">
<path d="M55.5591 40.8607C55.9703 41.5719 56.0823 42.4169 55.8705 43.2104C55.6588 44.0039 55.1406 44.6813 54.4294 45.0942L29.5543 59.5767C29.0785 59.8539 28.5375 60 27.9866 60C27.4357 60 26.8947 59.8539 26.419 59.5767L1.54389 45.0942C0.831249 44.6796 0.312819 43.9994 0.102652 43.2033C-0.107515 42.4071 0.0077958 41.5603 0.423219 40.849C0.838641 40.1378 1.52015 39.6203 2.31781 39.4106C3.11547 39.2008 3.96396 39.3159 4.6766 39.7305L27.997 53.3027L51.32 39.7305C52.0327 39.3211 52.8789 39.2102 53.6733 39.422C54.4678 39.6338 55.1458 40.1511 55.5591 40.8607ZM51.32 27.3169L27.9996 40.8891L4.69215 27.3169C3.98152 26.9361 3.15044 26.8458 2.37436 27.0651C1.59828 27.2844 0.937936 27.796 0.532739 28.4921C0.127542 29.1882 0.00920185 30.0142 0.202702 30.7957C0.396202 31.5772 0.886399 32.2531 1.5698 32.6806L26.4449 47.1631C26.9206 47.4403 27.4616 47.5864 28.0125 47.5864C28.5634 47.5864 29.1044 47.4403 29.5802 47.1631L54.4553 32.6806C55.1679 32.2657 55.6862 31.5851 55.8961 30.7888C56.1061 29.9924 55.9904 29.1454 55.5747 28.4342C55.1589 27.7229 54.4771 27.2056 53.6791 26.9961C52.8812 26.7865 52.0326 26.902 51.32 27.3169ZM0.0151114 17.5852C0.0161247 17.0414 0.160278 16.5075 0.433133 16.0368C0.705988 15.5661 1.09797 15.1752 1.5698 14.9034L26.4449 0.420848C26.9212 0.145181 27.462 0 28.0125 0C28.5631 0 29.1039 0.145181 29.5802 0.420848L54.4553 14.9034C54.9253 15.1765 55.3152 15.5679 55.5863 16.0385C55.8574 16.5091 56 17.0424 56 17.5852C56 18.128 55.8574 18.6613 55.5863 19.1319C55.3152 19.6025 54.9253 19.9939 54.4553 20.2671L29.5802 34.7496C29.1044 35.0268 28.5634 35.1728 28.0125 35.1728C27.4616 35.1728 26.9206 35.0268 26.4449 34.7496L1.5698 20.2671C1.09797 19.9952 0.705988 19.6043 0.433133 19.1336C0.160278 18.663 0.0161247 18.129 0.0151114 17.5852ZM9.29663 17.5852L27.9996 28.4755L46.7025 17.5852L27.9996 6.69488L9.29663 17.5852Z" fill="white" fill-opacity="0.9"/>
</svg>
