<svg width="20" height="20" viewBox="0 0 20 20" fill="none" xmlns="http://www.w3.org/2000/svg">
<path d="M19.2501 0.498857C19.0361 0.284824 18.769 0.131693 18.4761 0.0552325C18.1833 -0.021228 17.8754 -0.0182539 17.5841 0.0638485L17.5654 0.0698075L1.2283 5.02261C0.896968 5.11871 0.602646 5.3132 0.384319 5.58031C0.165992 5.84743 0.0339619 6.17457 0.00571696 6.5184C-0.022528 6.86223 0.0543448 7.20653 0.226153 7.50569C0.397962 7.80486 0.656599 8.04477 0.967808 8.19366L8.08629 11.6627L11.5519 18.7837C11.6885 19.0743 11.9053 19.3199 12.1768 19.4915C12.4482 19.6631 12.7631 19.7536 13.0842 19.7525C13.1327 19.7525 13.1821 19.7525 13.2315 19.7465C13.5762 19.72 13.9045 19.5881 14.1719 19.3689C14.4393 19.1496 14.6328 18.8535 14.7263 18.5206L19.6791 2.18356C19.6816 2.17749 19.6836 2.17122 19.6851 2.16483C19.7672 1.87354 19.7702 1.56562 19.6937 1.2728C19.6173 0.979976 19.4641 0.712825 19.2501 0.498857ZM13.0161 17.1169L10.0902 11.1034L14.0061 7.19169C14.1012 7.09667 14.1765 6.98386 14.228 6.8597C14.2794 6.73555 14.3059 6.60248 14.3059 6.4681C14.3059 6.33371 14.2794 6.20064 14.228 6.07649C14.1765 5.95233 14.1012 5.83952 14.0061 5.7445C13.9111 5.64948 13.7983 5.5741 13.6742 5.52267C13.55 5.47125 13.4169 5.44478 13.2826 5.44478C13.1482 5.44478 13.0151 5.47125 12.8909 5.52267C12.7668 5.5741 12.654 5.64948 12.559 5.7445L8.64303 9.66043L2.63208 6.73285L17.5356 2.21335L13.0161 17.1169Z" fill="white"/>
</svg>
