<svg width="22" height="22" viewBox="0 0 22 22" fill="none" xmlns="http://www.w3.org/2000/svg">
<path d="M7.49451 0.37298C4.54505 1.43266 2.1033 3.62426 0.773626 6.39386C0.0241758 7.9593 0 8.15196 0 11.0661C0 14.0524 0 14.1006 0.894506 15.8828C2.03077 18.1707 4.03736 20.1456 6.33407 21.2293C7.90549 21.9759 8.0989 22 11 22C13.9011 22 14.0945 21.9759 15.6659 21.2293C17.9626 20.1456 19.9692 18.1707 21.1055 15.8828C22 14.1006 22 14.0524 22 11.0661C22 8.15196 21.9758 7.9593 21.2264 6.39386C20.1385 4.10593 18.156 2.10699 15.8593 0.975067C14.1429 0.132145 13.9011 0.0839767 11.3868 0.0117264C9.30769 -0.0364399 8.43736 0.0598927 7.49451 0.37298ZM15.5209 2.22741C16.4879 2.73317 17.7209 3.62426 18.2769 4.22635C19.5582 5.59911 20.7187 8.12788 20.8637 9.76556L20.9604 11.042H19.3648H17.7692V10.0546C17.7692 9.52472 17.6484 8.85039 17.4791 8.56138C17.3341 8.27238 17.2374 7.35721 17.2615 6.51428C17.2857 5.62319 17.189 4.82843 17.0198 4.63577C16.6813 4.22635 15.2791 4.20226 14.5538 4.5876C14.2396 4.75618 12.8374 4.85252 11 4.85252C9.16264 4.85252 7.76044 4.75618 7.44615 4.5876C7.15604 4.41901 6.47912 4.2986 5.94725 4.2986C5.02857 4.2986 4.95604 4.34676 4.73846 5.18969C4.59341 5.67136 4.54505 6.32161 4.64176 6.6347C4.71429 6.94779 4.56923 8.07971 4.32747 9.13939L3.86813 11.042H2.49011H1.08791V10.1268C1.08791 7.88704 2.82857 4.7321 5.02857 3.09442C6.96264 1.62532 8.55824 1.16774 11.3626 1.23999C13.6352 1.31224 13.8769 1.3604 15.5209 2.22741ZM7.34945 6.00853C8.02637 6.41795 8.29231 6.44203 8.8967 6.24936C9.83956 5.91219 12.1604 5.91219 13.1033 6.24936C13.7077 6.44203 13.9736 6.41795 14.6505 6.00853C15.9802 5.18969 16.1736 5.31011 16.0044 6.82737C15.9077 7.74254 15.9802 8.36872 16.222 8.8263C16.3912 9.18756 16.5604 9.88598 16.5604 10.3917C16.5604 12.8001 14.5538 14.1969 11.0484 14.1969C8.72747 14.1969 7.44615 13.8116 6.38242 12.776C5.22198 11.5959 5.0044 10.4158 5.65714 9.04305C6.01978 8.27238 6.09231 7.81479 5.94725 7.0682C5.63297 5.38236 5.94725 5.14152 7.34945 6.00853ZM4.10989 11.8849C3.52967 12.0776 1.08791 12.1498 1.08791 11.9572C1.08791 11.8608 1.81319 11.7645 2.73187 11.7886C3.62637 11.7886 4.25495 11.8367 4.10989 11.8849ZM20.9121 11.9572C20.9121 12.0776 20.2352 12.1257 19.4132 12.0535C17.2374 11.9331 17.1165 11.8127 19.1714 11.7886C20.1143 11.7645 20.9121 11.8608 20.9121 11.9572ZM5.43956 13.6912C6.01978 14.2692 6.81758 14.7749 7.54286 14.9917C8.50989 15.2566 8.63077 15.3529 8.21978 15.5215C7.13187 15.955 6.18901 15.7383 5.24615 14.8231C4.56923 14.1728 4.13407 13.932 3.55385 13.932C2.9011 13.932 2.78022 14.0283 2.78022 14.51C2.78022 14.8472 2.9011 15.1844 3.02198 15.2566C3.16703 15.3529 3.55385 15.9309 3.86813 16.5812C4.56923 17.978 5.02857 18.2671 6.5033 18.2671H7.61538V19.3508V20.4346L6.40659 19.8325C4.08571 18.6765 2.58681 16.9184 1.54725 14.1969C1.03956 12.8001 1.06374 12.776 3.09451 12.7519C4.4 12.7278 4.52088 12.776 5.43956 13.6912ZM20.5253 12.8723C20.8396 12.9928 20.8396 13.1373 20.4527 14.1969C19.4132 16.9184 17.9143 18.6765 15.5934 19.8325L14.3846 20.4346V18.5801C14.3846 17.1351 14.2637 16.533 13.9011 15.9069C13.5143 15.2566 13.4901 15.1362 13.8044 15.1362C14.433 15.1362 16.0527 14.1969 16.7297 13.4503C17.2857 12.8001 17.5275 12.7278 18.7604 12.7278C19.5099 12.7278 20.3077 12.8001 20.5253 12.8723ZM12.789 16.5571C13.1516 17.1592 13.2725 17.8335 13.2725 19.0859L13.2967 20.7958L12.1604 20.9162C11.5077 20.9885 10.4923 20.9885 9.86374 20.9162L8.7033 20.7958L8.63077 19.6639C8.53407 18.243 8.94506 16.7016 9.57363 16.0754C9.93626 15.7142 10.3231 15.6179 11.1934 15.666C12.1846 15.7383 12.3538 15.8346 12.789 16.5571ZM7.61538 17.0629C7.61538 17.3519 6.72088 17.3519 6.04396 17.0629C5.68132 16.8943 5.8022 16.8461 6.6 16.8461C7.15604 16.822 7.61538 16.9184 7.61538 17.0629Z" fill="#ECECEC"/>
</svg>
