<svg width="56" height="60" viewBox="0 0 56 60" fill="none" xmlns="http://www.w3.org/2000/svg">
<path d="M27.3212 0.158866C27.1903 0.240984 27.0333 0.452142 26.9547 0.628108C26.7715 1.08562 26.7846 7.23269 26.9678 7.73712C27.1642 8.20636 27.7401 8.46445 28.3161 8.31194C29.0491 8.12424 29.0491 8.12424 29.0491 4.15915V0.499066L28.7481 0.252715C28.4077 -0.0405615 27.6747 -0.0874857 27.3212 0.158866Z" fill="white"/>
<path d="M11.0242 4.33513C10.6577 4.46417 10.4613 4.80437 10.4613 5.29707C10.4613 5.57862 10.7362 6.05959 11.4431 7.03327C11.9798 7.77232 12.8306 8.99235 13.3542 9.73141C14.5978 11.5145 14.7025 11.6084 15.3832 11.6084C15.8282 11.6084 15.9984 11.5497 16.2078 11.3034C16.6398 10.8107 16.5613 10.3649 15.8544 9.37947C15.501 8.8985 14.637 7.67847 13.9302 6.68133C12.1761 4.21782 11.9143 4.01839 11.0242 4.33513Z" fill="white"/>
<path d="M44.3513 4.68706C44.2466 4.74571 43.1994 6.07132 42.0344 7.64328C39.7175 10.7637 39.6127 10.9984 40.2411 11.5497C40.6599 11.9368 41.3406 11.9486 41.7071 11.5732C41.8511 11.4324 42.8983 10.0599 44.0372 8.53484C45.9745 5.93055 46.0923 5.73112 46.0138 5.344C45.9614 5.10938 45.7912 4.85129 45.6341 4.74571C45.32 4.54629 44.6786 4.52282 44.3513 4.68706Z" fill="white"/>
<path d="M25.3839 13.0748C18.9698 14.0602 13.9171 17.8493 11.718 23.316C10.7755 25.6622 10.5268 28.9351 11.1027 31.4104C11.6787 33.8622 13.027 36.5016 14.5192 38.0501C14.7025 38.2496 15.3832 38.9065 16.0246 39.5283C18.0928 41.5108 18.7604 43.0945 18.9567 46.4848C19.0484 48.045 19.0876 48.2444 19.3494 48.479L19.6374 48.7371L27.9496 48.7723L36.2617 48.7958L36.6282 48.479C36.9816 48.1623 36.9947 48.0919 37.0733 46.6255C37.2042 44.0799 37.7016 42.3672 38.6833 40.9946C38.9059 40.6662 39.6913 39.8333 40.4112 39.1411C43.7492 35.9268 45.2938 32.4779 45.2938 28.3251C45.2938 22.835 42.27 18.0722 36.9031 15.0808C35.8952 14.5177 33.7484 13.7082 32.4656 13.4032C30.3843 12.9105 27.3736 12.7697 25.3839 13.0748ZM31.4708 15.2215C35.7905 16.16 39.364 18.6822 41.3537 22.225C41.7595 22.9288 42.1915 23.8087 42.3093 24.1606C44.011 29.0524 42.6496 34.2024 38.6964 37.8155C37.6623 38.754 36.9555 39.5634 36.4711 40.3612C35.7119 41.6047 35.0836 43.7866 34.8742 45.8982L34.7825 46.6842H21.2344L21.0904 45.2999C20.737 42.2264 19.7683 40.0679 17.9619 38.3903C16.81 37.3111 15.946 36.4078 15.4748 35.7743C10.5529 29.1463 13.1055 20.1603 20.9464 16.4298C24.1535 14.9165 28.0019 14.4707 31.4708 15.2215Z" fill="white"/>
<path d="M27.3212 17.0281C26.994 17.251 26.8107 17.7789 26.9416 18.0839C27.1773 18.6353 27.5438 18.7995 28.8397 18.8933C32.9499 19.1983 36.5235 21.439 38.2121 24.7706C38.7095 25.7677 38.9975 26.7883 39.1415 28.1374C39.22 28.7474 39.3248 29.334 39.3902 29.4513C39.5997 29.7798 40.3589 29.9557 40.7908 29.768C41.3537 29.5334 41.4977 29.158 41.4061 28.1491C41.2752 26.4833 40.7385 24.6885 39.9924 23.3746C39.4949 22.483 38.2514 20.9932 37.3613 20.219C35.869 18.9168 33.6306 17.7789 31.497 17.2275C30.2796 16.9225 27.6485 16.7935 27.3212 17.0281Z" fill="white"/>
<path d="M0.395128 14.5529C0.238048 14.7054 0.0678783 14.9635 0.0286083 15.116C-0.115382 15.6439 0.251138 15.9723 1.88739 16.7818C2.75133 17.2041 4.25668 17.9431 5.22534 18.4124C6.56051 19.0693 7.11029 19.2922 7.50299 19.2922C8.10513 19.2922 8.49783 18.9285 8.49783 18.3537C8.49783 18.0018 8.07895 17.3566 7.85642 17.3566C7.80406 17.3566 6.40343 16.6879 4.7541 15.8785C1.44233 14.2479 0.892548 14.0719 0.395128 14.5529Z" fill="white"/>
<path d="M53.4619 14.8109C52.886 15.0925 51.9173 15.5617 51.3021 15.855C50.6869 16.16 49.7444 16.6058 49.2077 16.8639C47.8463 17.5208 47.506 17.8141 47.506 18.342C47.506 18.8582 47.9772 19.3509 48.4878 19.3509C48.9197 19.3509 55.1636 16.3594 55.6742 15.9137C55.9883 15.6321 56.0407 15.5265 55.9752 15.1511C55.8705 14.6233 55.4778 14.3065 54.9149 14.3065C54.6924 14.3065 54.051 14.5294 53.4619 14.8109Z" fill="white"/>
<path d="M20.3443 49.8164C19.8207 49.9102 19.0484 50.5085 18.7604 51.0247C17.9488 52.4324 18.8651 54.0982 20.6061 54.4267C21.0642 54.5088 23.6822 54.544 28.3423 54.5205C36.3664 54.4853 36.1308 54.5088 36.9686 53.5234C37.61 52.7609 37.7147 51.9397 37.2435 51.1068C37.034 50.7197 36.7068 50.3677 36.3533 50.1448L35.7905 49.7929L28.1983 49.7812C24.0226 49.7694 20.4883 49.7812 20.3443 49.8164ZM34.992 51.7637C35.1229 51.8458 35.2014 52.0218 35.1752 52.1508C35.136 52.362 34.9396 52.3737 28.0805 52.4089C22.9754 52.4207 20.9726 52.3972 20.8548 52.3034C20.5799 52.1039 20.6323 51.8458 20.9726 51.7285C21.1297 51.6699 24.2975 51.6229 28.015 51.6229C33.395 51.6112 34.8087 51.6464 34.992 51.7637Z" fill="white"/>
<path d="M21.9282 55.635C21.6402 55.7757 21.2344 56.0925 21.0119 56.3388C20.6322 56.7612 20.6061 56.8667 20.6061 57.7114C20.6061 58.556 20.6322 58.6616 21.0119 59.0722C21.902 60.0693 21.3915 59.9989 28.0019 59.9989C34.6124 59.9989 34.1018 60.0693 34.992 59.0722C35.3716 58.6616 35.3978 58.556 35.3978 57.7114C35.3978 56.8667 35.3716 56.7612 34.992 56.3388C34.7694 56.0925 34.3636 55.7757 34.0757 55.635C33.5652 55.3769 33.5128 55.3652 28.0019 55.3652C22.491 55.3652 22.4387 55.3769 21.9282 55.635ZM33.0546 57.4064C33.251 57.5471 33.2772 57.6175 33.1594 57.7935C33.0285 57.9929 32.675 58.0046 28.1852 58.0398C25.5279 58.0516 23.2241 58.0398 23.067 58.0046C22.7397 57.9343 22.6743 57.6058 22.923 57.3829C23.0408 57.2773 24.3367 57.2421 27.9365 57.2421C31.9682 57.2421 32.8452 57.2656 33.0546 57.4064Z" fill="white"/>
</svg>
