<svg width="20" height="20" viewBox="0 0 20 20" fill="none" xmlns="http://www.w3.org/2000/svg">
<path d="M2.5833 0.7222C1.9167 1.1111 1.0833 1.9444 0.694397 2.6111C-3.03984e-06 3.7778 0 3.8889 0 10C0 16.1389 -3.03984e-06 16.2222 0.694397 17.3889C1.1111 18.1111 1.8889 18.8889 2.6111 19.3056C3.7778 20 3.8611 20 10 20C16.1389 20 16.2222 20 17.3889 19.3056C18.1111 18.8889 18.8889 18.1111 19.3056 17.3889C20 16.2222 20 16.1389 20 10C20 3.8611 20 3.7778 19.3056 2.6111C18.8889 1.8889 18.1111 1.1111 17.3889 0.694401C16.2222 7.7486e-07 16.1389 0 9.9722 0C3.8056 0 3.75 4.17233e-07 2.5833 0.7222ZM15.9167 2.8611C17.5278 3.9167 17.6389 4.3611 17.6389 10C17.6389 15.6389 17.5278 16.0833 15.9167 17.1389C15.2778 17.5833 14.4722 17.6389 10 17.6389C5.5278 17.6389 4.7222 17.5833 4.0833 17.1389C2.5556 16.1389 2.3611 15.5278 2.2778 11.0278C2.2222 8.75 2.25 6.3333 2.3611 5.6667C2.5833 4.1944 3.6111 2.8889 4.8056 2.5278C5.3056 2.3611 7.8333 2.2778 10.4167 2.3056C14.4167 2.3611 15.2778 2.4444 15.9167 2.8611Z" fill="white"/>
<path d="M14.5556 3.7221C14.4723 3.9443 14.4445 4.4165 14.5001 4.7776C14.5556 5.3054 14.7501 5.4165 15.5556 5.4165C16.4723 5.4165 16.5279 5.3609 16.5279 4.4443C16.5279 3.5554 16.4445 3.4721 15.6112 3.3887C15.0279 3.3332 14.6668 3.4443 14.5556 3.7221Z" fill="white"/>
<path d="M7.0277 5.1668C5.3054 6.1946 4.4443 7.8057 4.4443 10.0001C4.4443 13.4168 6.5832 15.5557 9.9999 15.5557C13.4166 15.5557 15.5554 13.4168 15.5554 10.0001C15.5554 6.5834 13.4166 4.4446 9.9721 4.4446C8.5554 4.4446 7.9443 4.5834 7.0277 5.1668ZM12.111 7.889C12.8888 8.6668 13.0554 9.0557 13.0554 10.0001C13.0554 10.9446 12.8888 11.3334 12.111 12.1112C11.3332 12.889 10.9443 13.0557 9.9999 13.0557C9.0554 13.0557 8.6666 12.889 7.8888 12.1112C7.111 11.3334 6.9443 10.9446 6.9443 10.0001C6.9443 9.0557 7.111 8.6668 7.8888 7.889C8.6666 7.1112 9.0554 6.9446 9.9999 6.9446C10.9443 6.9446 11.3332 7.1112 12.111 7.889Z" fill="white"/>
</svg>
