<svg width="20" height="20" viewBox="0 0 20 20" fill="none" xmlns="http://www.w3.org/2000/svg">
<path d="M0.515152 0.545454C0.0606061 1.0303 0 2.15151 0 10.0606C0 18.3333 0.0303031 19.0303 0.545455 19.4848C1.0303 19.9394 2.15152 20 10.0606 20C18.3333 20 19.0303 19.9697 19.4848 19.4545C19.9394 18.9697 20 17.8485 20 9.93939C20 1.66667 19.9697 0.969696 19.4545 0.51515C18.9697 0.060606 17.8485 0 9.93939 0C1.66667 0 0.969697 0.030302 0.515152 0.545454ZM17.8182 2.18182C18.3333 2.69697 18.3333 17.303 17.8182 17.8182C17.303 18.3333 2.69697 18.3333 2.18182 17.8182C1.66667 17.303 1.66667 2.69697 2.18182 2.18182C2.69697 1.66667 17.303 1.66667 17.8182 2.18182Z" fill="white"/>
<path d="M3.66662 3.75664C3.4545 3.99907 3.33329 4.66573 3.3939 5.21119C3.4545 5.96876 3.66662 6.27179 4.33329 6.48391C5.78784 6.99907 6.99996 5.78694 6.48481 4.3324C6.27269 3.63543 5.99996 3.45361 5.12117 3.39301C4.4545 3.3324 3.90905 3.45361 3.66662 3.75664Z" fill="white"/>
<path d="M12.1215 7.48535C11.879 7.57625 11.4245 7.84898 11.1518 8.12171C10.6669 8.54595 10.6063 8.51565 10.6063 8.09141C10.6063 7.69747 10.3033 7.57625 9.24266 7.57625H7.87903V16.3641H10.9093V13.6672C10.9093 11.6066 11.0305 10.849 11.3942 10.4853C12.7275 9.15201 13.6366 10.5156 13.6366 13.849V16.3641H16.3639V12.7884C16.3639 8.72777 16.1215 8.09141 14.3033 7.57625C13.0911 7.24292 12.8184 7.24292 12.1215 7.48535Z" fill="white"/>
<path d="M3.63586 16.3641H6.36314V7.57626H3.63586V16.3641Z" fill="white"/>
</svg>
