<svg width="56" height="56" viewBox="0 0 56 56" fill="none" xmlns="http://www.w3.org/2000/svg">
<path d="M19.252 1.05154C12.2825 3.22471 5.87625 8.903 2.35632 16.0534C-0.318825 21.5214 -0.811616 31.1955 1.37074 37.014L2.77871 41.08L1.44114 45.5665C-1.7972 56.152 0.103565 57.7643 11.5785 54.4695C17.6328 52.6469 19.3224 51.1046 17.3512 49.2118C16.2952 48.1603 15.8024 48.1603 10.6634 49.4923L5.17226 50.9644L6.65063 45.5665L8.05861 40.1686L6.43944 36.4532C4.25708 31.4058 4.53868 23.0637 7.00263 18.0163C10.4522 10.936 18.0552 5.53808 25.3063 5.11747C31.8533 4.62675 32.4165 4.41645 32.4165 2.10307V0L27.3478 0.0701023C24.5319 0.0701023 20.8711 0.490716 19.252 1.05154Z" fill="#9D86FF"/>
<path d="M36.8516 1.89301C36.3588 2.03321 35.9364 2.94454 35.9364 3.78577C35.9364 4.90741 37.0628 6.09915 40.2307 8.13211C47.693 12.8991 51.4241 19.5588 51.4241 28.0412C51.4241 36.1731 47.9746 42.7627 41.2867 47.3193C37.8372 49.6327 35.3732 50.4038 28.1926 51.6657C25.447 52.1564 25.0246 52.4368 25.0246 53.979C25.0246 55.7316 25.095 55.7316 30.6565 55.7316C35.4436 55.6615 36.9924 55.3811 40.5123 53.6285C45.933 51.0347 51.2833 45.707 53.9584 40.3091C55.8592 36.3834 56 35.5421 56 28.0412C56 20.6804 55.8592 19.6289 54.0992 16.1238C51.6353 11.0764 48.045 7.01048 43.8914 4.34659C40.2307 2.03321 38.1892 1.33219 36.8516 1.89301Z" fill="#9D86FF"/>
<path d="M13.8313 22.0822C13.6201 22.643 13.6201 23.6244 13.8313 24.1853C14.4649 25.7275 41.9203 25.7275 42.5539 24.1853C42.7651 23.6244 42.7651 22.643 42.5539 22.0822C41.9203 20.5399 14.4649 20.5399 13.8313 22.0822Z" fill="#9D86FF"/>
<path d="M13.8313 31.8962C13.6201 32.457 13.6201 33.4384 13.8313 33.9992C14.4649 35.5415 36.2885 35.5415 36.922 33.9992C37.1332 33.4384 37.1332 32.457 36.922 31.8962C36.2885 30.3539 14.4649 30.3539 13.8313 31.8962Z" fill="#9D86FF"/>
</svg>
