<svg width="155" height="142" viewBox="0 0 155 142" fill="none" xmlns="http://www.w3.org/2000/svg">
<path d="M4.38048 4.39524L4.87e-05 8.95952V105.993L4.38048 110.557C8.25548 114.445 10.2772 114.952 19.8805 114.952H30.8316L29.8207 121.207C29.1468 124.588 26.7881 129.321 24.4294 131.857C18.0272 138.45 18.8696 142 26.7881 142C40.6033 142 52.7337 134.9 59.9783 122.56L64.3587 114.952H146.071L150.62 110.557L155 105.993V8.95952L150.62 4.39524L146.071 0H8.9294L4.38048 4.39524Z" fill="white" fill-opacity="0.08"/>
<path d="M4.38048 4.39524L4.87e-05 8.95952V105.993L4.38048 110.557C8.25548 114.445 10.2772 114.952 19.8805 114.952H30.8316L29.8207 121.207C29.1468 124.588 26.7881 129.321 24.4294 131.857C18.0272 138.45 18.8696 142 26.7881 142C40.6033 142 52.7337 134.9 59.9783 122.56L64.3587 114.952H146.071L150.62 110.557L155 105.993V8.95952L150.62 4.39524L146.071 0H8.9294L4.38048 4.39524Z" fill="black" fill-opacity="0.08"/>
<path d="M145.97 0.25L150.445 4.57422L154.75 9.06055V105.891L150.445 110.377L145.97 114.702H64.214L64.1417 114.827L59.7628 122.433C52.5612 134.7 40.511 141.75 26.7882 141.75C24.8224 141.75 23.3214 141.529 22.2716 141.11C21.2273 140.694 20.6571 140.095 20.4816 139.344C20.3023 138.577 20.5171 137.582 21.2023 136.345C21.8849 135.112 23.0157 133.672 24.6085 132.031L24.6124 132.027C25.8129 130.737 27.0052 128.898 27.9806 126.962C28.9561 125.026 29.7229 122.975 30.0656 121.256H30.0665L30.0675 121.247L31.0782 114.992L31.1251 114.702H19.88C15.0725 114.702 12.2014 114.574 10.0499 113.972C8.18562 113.45 6.85202 112.57 5.25891 111.064L4.55774 110.381L0.250122 105.891V9.06055L4.55383 4.5752L9.02942 0.25H145.97Z" stroke="white" stroke-opacity="0.1" stroke-width="0.5"/>
</svg>
