<svg width="50" height="60" viewBox="0 0 50 60" fill="none" xmlns="http://www.w3.org/2000/svg">
<path d="M40.7895 0H9.21053C6.76774 0 4.42501 0.762929 2.6977 2.12095C0.970392 3.47897 0 5.32085 0 7.24138V52.7586C0 54.6792 0.970392 56.521 2.6977 57.879C4.42501 59.2371 6.76774 60 9.21053 60H40.7895C43.2323 60 45.575 59.2371 47.3023 57.879C49.0296 56.521 50 54.6792 50 52.7586V7.24138C50 5.32085 49.0296 3.47897 47.3023 2.12095C45.575 0.762929 43.2323 0 40.7895 0ZM42.1053 52.7586C42.1053 53.033 41.9666 53.2961 41.7199 53.4901C41.4731 53.6841 41.1384 53.7931 40.7895 53.7931H9.21053C8.86156 53.7931 8.52688 53.6841 8.28012 53.4901C8.03336 53.2961 7.89474 53.033 7.89474 52.7586V7.24138C7.89474 6.96702 8.03336 6.70389 8.28012 6.50989C8.52688 6.31589 8.86156 6.2069 9.21053 6.2069H40.7895C41.1384 6.2069 41.4731 6.31589 41.7199 6.50989C41.9666 6.70389 42.1053 6.96702 42.1053 7.24138V52.7586ZM36.8421 13.4483C36.8421 14.2714 36.4262 15.0607 35.6859 15.6427C34.9457 16.2248 33.9416 16.5517 32.8947 16.5517H17.1053C16.0584 16.5517 15.0543 16.2248 14.3141 15.6427C13.5738 15.0607 13.1579 14.2714 13.1579 13.4483C13.1579 12.6252 13.5738 11.8358 14.3141 11.2538C15.0543 10.6718 16.0584 10.3448 17.1053 10.3448H32.8947C33.9416 10.3448 34.9457 10.6718 35.6859 11.2538C36.4262 11.8358 36.8421 12.6252 36.8421 13.4483Z" fill="white"/>
</svg>
