<svg width="56" height="41" viewBox="0 0 56 41" fill="none" xmlns="http://www.w3.org/2000/svg">
<path d="M20.7407 0H5.18519C3.80999 0 2.49112 0.539954 1.51871 1.50108C0.546295 2.4622 0 3.76577 0 5.125V21.525C0 22.8842 0.546295 24.1878 1.51871 25.1489C2.49112 26.11 3.80999 26.65 5.18519 26.65H19.7037V27.675C19.7037 29.5779 18.9389 31.4029 17.5775 32.7485C16.2161 34.0941 14.3697 34.85 12.4444 34.85C11.6193 34.85 10.828 35.174 10.2446 35.7506C9.66111 36.3273 9.33333 37.1095 9.33333 37.925C9.33333 38.7405 9.66111 39.5227 10.2446 40.0994C10.828 40.676 11.6193 41 12.4444 41C16.0187 40.9959 19.4454 39.5907 21.9727 37.0927C24.5001 34.5947 25.9218 31.2078 25.9259 27.675V5.125C25.9259 3.76577 25.3796 2.4622 24.4072 1.50108C23.4348 0.539954 22.1159 0 20.7407 0ZM19.7037 20.5H6.22222V6.15H19.7037V20.5ZM50.8148 0H35.2593C33.8841 0 32.5652 0.539954 31.5928 1.50108C30.6204 2.4622 30.0741 3.76577 30.0741 5.125V21.525C30.0741 22.8842 30.6204 24.1878 31.5928 25.1489C32.5652 26.11 33.8841 26.65 35.2593 26.65H49.7778V27.675C49.7778 29.5779 49.013 31.4029 47.6516 32.7485C46.2902 34.0941 44.4438 34.85 42.5185 34.85C41.6934 34.85 40.9021 35.174 40.3186 35.7506C39.7352 36.3273 39.4074 37.1095 39.4074 37.925C39.4074 38.7405 39.7352 39.5227 40.3186 40.0994C40.9021 40.676 41.6934 41 42.5185 41C46.0928 40.9959 49.5194 39.5907 52.0468 37.0927C54.5742 34.5947 55.9959 31.2078 56 27.675V5.125C56 3.76577 55.4537 2.4622 54.4813 1.50108C53.5089 0.539954 52.19 0 50.8148 0ZM49.7778 20.5H36.2963V6.15H49.7778V20.5Z" fill="#9D86FF"/>
</svg>
