<svg width="56" height="60" viewBox="0 0 56 60" fill="none" xmlns="http://www.w3.org/2000/svg">
<path d="M0.774824 0.909902C-0.258275 2.1231 -0.258275 46.512 0.774824 47.7252C1.26099 48.2962 4.60336 48.5816 11.7135 48.5816H21.923V50.7226C21.923 52.7208 21.8014 52.8635 19.6137 52.8635C16.6967 52.8635 15.8459 53.8626 15.8459 57.2881V60H40.1541V57.2881C40.1541 53.8626 39.3033 52.8635 36.3863 52.8635C34.1986 52.8635 34.077 52.7208 34.077 50.7226V48.5816H44.2865C51.3966 48.5816 54.739 48.2962 55.2252 47.7252C56.2583 46.512 56.2583 2.1231 55.2252 0.909902C54.1921 -0.303301 1.80792 -0.303301 0.774824 0.909902ZM52.7944 3.7645C53.8275 4.9777 53.8275 43.6574 52.7944 44.8706C51.7613 46.0839 4.23874 46.0839 3.20564 44.8706C2.17254 43.6574 2.17254 4.9777 3.20564 3.7645C4.23874 2.55129 51.7613 2.55129 52.7944 3.7645ZM31.6462 52.8635H24.3538V48.5816H31.6462V52.8635ZM36.8117 56.4318C37.0548 56.8599 33.9555 57.1454 28 57.1454C22.0445 57.1454 18.9452 56.8599 19.1883 56.4318C19.4314 56.0036 23.0168 55.7181 28 55.7181C32.9832 55.7181 36.5686 56.0036 36.8117 56.4318Z" fill="white"/>
<path d="M6.42648 12.3996C6.24417 12.8992 6.1834 18.2516 6.24417 24.3176L6.42648 35.3791H17.9729V11.8287L12.3212 11.6146C8.06728 11.4719 6.60879 11.686 6.42648 12.3996ZM15.8459 32.8814H8.55345V14.3265H15.8459V32.8814Z" fill="white"/>
<path d="M10.9843 30.0268C10.9843 30.9545 11.4097 31.4541 12.1997 31.4541C12.9897 31.4541 13.4151 30.9545 13.4151 30.0268C13.4151 29.099 12.9897 28.5995 12.1997 28.5995C11.4097 28.5995 10.9843 29.099 10.9843 30.0268Z" fill="white"/>
<path d="M23.3814 12.3996C23.2599 12.8992 23.1991 18.2516 23.2599 24.3176L23.4422 35.3791H49.5735V11.8287L36.6294 11.6146C26.42 11.4719 23.6245 11.6146 23.3814 12.3996ZM47.4466 32.8814H25.5692V14.3265H47.4466V32.8814Z" fill="white"/>
<path d="M35.2925 30.0268C35.2925 30.9545 35.7178 31.4541 36.5079 31.4541C37.2979 31.4541 37.7233 30.9545 37.7233 30.0268C37.7233 29.099 37.2979 28.5995 36.5079 28.5995C35.7178 28.5995 35.2925 29.099 35.2925 30.0268Z" fill="white"/>
<path d="M26.7846 42.8724C26.7846 43.8002 27.21 44.2997 28 44.2997C28.79 44.2997 29.2154 43.8002 29.2154 42.8724C29.2154 41.9447 28.79 41.4451 28 41.4451C27.21 41.4451 26.7846 41.9447 26.7846 42.8724Z" fill="white"/>
</svg>
