<svg width="35" height="35" viewBox="0 0 35 35" fill="none" xmlns="http://www.w3.org/2000/svg">
<path d="M17.125 0C13.738 0 10.4271 1.00436 7.61087 2.88608C4.79468 4.7678 2.59972 7.44236 1.30357 10.5715C0.00742006 13.7007 -0.331712 17.144 0.32906 20.4659C0.989832 23.7878 2.62083 26.8392 5.0158 29.2342C7.41078 31.6292 10.4622 33.2602 13.7841 33.9209C17.106 34.5817 20.5493 34.2426 23.6785 32.9464C26.8076 31.6503 29.4822 29.4553 31.3639 26.6391C33.2456 23.8229 34.25 20.512 34.25 17.125C34.245 12.5847 32.4391 8.23183 29.2286 5.02136C26.0182 1.81089 21.6653 0.00503637 17.125 0ZM17.125 29.6516C15.723 28.0107 14.6278 26.1308 13.8919 24.1019H20.3645C19.9457 25.2492 19.4146 26.3523 18.7788 27.3952C18.2897 28.191 17.7366 28.9456 17.125 29.6516ZM12.9246 20.2963C12.6107 18.1938 12.6107 16.0562 12.9246 13.9537H21.3286C21.6425 16.0562 21.6425 18.1938 21.3286 20.2963H12.9246ZM3.80556 17.125C3.80552 16.0562 3.9349 14.9914 4.19088 13.9537H9.07784C8.81358 16.0596 8.81358 18.1904 9.07784 20.2963H4.19088C3.9349 19.2586 3.80552 18.1938 3.80556 17.125ZM17.125 4.59838C18.5271 6.23927 19.6222 8.11918 20.3581 10.1481H13.8887C14.3075 9.00081 14.8386 7.89765 15.4743 6.85476C15.9625 6.05914 16.5145 5.30453 17.125 4.59838ZM25.169 13.9537H30.056C30.5697 16.0367 30.5697 18.2133 30.056 20.2963H25.1722C25.4364 18.1904 25.4364 16.0596 25.1722 13.9537H25.169ZM28.4624 10.1481H24.373C23.8016 8.23012 22.975 6.39761 21.9153 4.69986C24.6333 5.75499 26.933 7.66781 28.4656 10.1481H28.4624ZM12.3348 4.69986C11.2751 6.39761 10.4484 8.23012 9.87701 10.1481H5.78445C7.31703 7.66781 9.61675 5.75499 12.3348 4.69986ZM5.78445 24.1019H9.87701C10.4484 26.0199 11.2751 27.8524 12.3348 29.5501C9.61675 28.495 7.31703 26.5822 5.78445 24.1019ZM21.9153 29.5501C22.975 27.8524 23.8016 26.0199 24.373 24.1019H28.4656C26.933 26.5822 24.6333 28.495 21.9153 29.5501Z" fill="white"/>
</svg>
